<?xml version="1.0" encoding="UTF-8" standalone="no"?>
<svg
   width="512"
   height="512"
   version="1.1"
   id="svg27"
   sodipodi:docname="logo_lateral.svg"
   inkscape:version="1.2 (dc2aedaf03, 2022-05-15)"
   xmlns:inkscape="http://www.inkscape.org/namespaces/inkscape"
   xmlns:sodipodi="http://sodipodi.sourceforge.net/DTD/sodipodi-0.dtd"
   xmlns="http://www.w3.org/2000/svg"
   xmlns:svg="http://www.w3.org/2000/svg">
  <defs
     id="defs31" />
  <sodipodi:namedview
     id="namedview29"
     pagecolor="#505050"
     bordercolor="#eeeeee"
     borderopacity="1"
     inkscape:showpageshadow="0"
     inkscape:pageopacity="0"
     inkscape:pagecheckerboard="0"
     inkscape:deskcolor="#505050"
     showgrid="false"
     inkscape:zoom="1.1600971"
     inkscape:cx="341.78174"
     inkscape:cy="220.67118"
     inkscape:window-width="1366"
     inkscape:window-height="705"
     inkscape:window-x="-8"
     inkscape:window-y="-8"
     inkscape:window-maximized="1"
     inkscape:current-layer="svg27" />
  <path
     id="path397"
     style="fill:#ffffff;fill-opacity:1;stroke:#ffffff;stroke-width:0.13225;stroke-linejoin:round"
     d="M 254.28906 11.222656 A 247.37695 247.37695 0 0 0 6.9121094 258.59961 A 247.37695 247.37695 0 0 0 254.28906 505.97656 A 247.37695 247.37695 0 0 0 501.66602 258.59961 A 247.37695 247.37695 0 0 0 254.28906 11.222656 z M 201.54883 104.11719 L 207.25977 104.11719 L 207.26172 104.11719 L 301.21875 104.11719 A 7.9265691 7.9265691 0 0 1 301.25195 104.11914 L 307.02734 104.11914 A 7.9265691 7.9265691 0 0 1 307.43945 104.12891 C 350.32583 106.3562 378.35809 127.11223 396.47461 152.85156 C 414.59114 178.5909 423.68568 209.1041 431.72266 232.53125 A 7.9265691 7.9265691 0 0 1 430.20312 240.30859 C 425.31097 245.92524 419.06236 247.83791 411.19922 250.54492 C 403.33607 253.25192 394.10715 255.70169 385.20312 257.81445 C 372.97746 260.71542 363.52521 262.53786 357.4375 263.66406 L 357.4375 394.78516 A 7.9265691 7.9265691 0 0 1 353.92578 401.36719 C 330.54425 417.04213 300.3752 418.39413 272.8125 421.70117 A 7.9265691 7.9265691 0 0 1 263.94336 413.83008 L 263.94336 293.70117 A 7.9265691 7.9265691 0 0 1 271.86914 285.77539 L 289.70898 285.77539 L 254.28906 246.45703 L 218.86914 285.77539 L 236.70898 285.77539 A 7.9265691 7.9265691 0 0 1 244.63477 293.70117 L 244.63477 413.83008 A 7.9265691 7.9265691 0 0 1 235.76562 421.70117 C 208.20292 418.39413 178.03388 417.04213 154.65234 401.36719 A 7.9265691 7.9265691 0 0 1 151.14062 394.78516 L 151.14062 263.66211 C 145.05292 262.53591 135.60068 260.71542 123.375 257.81445 C 114.47099 255.70169 105.24205 253.25192 97.378906 250.54492 C 89.515762 247.83791 83.267159 245.92524 78.375 240.30859 A 7.9265691 7.9265691 0 0 1 76.855469 232.53125 C 84.892417 209.10414 93.987075 178.59092 112.10352 152.85156 C 130.21995 127.11222 158.25191 106.35619 201.13867 104.12891 A 7.9265691 7.9265691 0 0 1 201.54883 104.11719 z M 217.09766 119.96875 C 222.33987 135.6947 236.98699 146.81072 254.24023 146.85742 C 271.49364 146.81113 286.13834 135.69457 291.38086 119.96875 L 254.28906 119.96875 L 217.09766 119.96875 z M 307.9043 120.0625 C 302.15643 144.62773 280.09844 162.65273 254.25977 162.71094 A 7.9265691 7.9265691 0 0 1 254.22266 162.71094 C 228.38638 162.65318 206.32905 144.63183 200.57812 120.07031 C 163.12164 122.40412 140.99116 139.35109 125.06641 161.97656 C 110.21145 183.08208 101.54445 209.12555 93.857422 231.79102 C 96.053471 232.92801 99.093637 234.3705 102.53906 235.55664 C 109.55878 237.97328 118.42612 240.34979 127.03516 242.39258 C 136.4517 244.62699 144.82762 246.32449 151.14062 247.53906 L 151.14062 209.71094 A 7.9265691 7.9265691 0 0 1 166.99219 209.71094 L 166.99219 257.07617 L 166.99219 390.19922 C 183.12756 399.41312 205.44122 402.20017 228.7832 404.9082 L 228.7832 301.62695 L 201.0625 301.62695 A 7.9265691 7.9265691 0 0 1 195.17383 288.39648 L 248.40039 229.31055 A 7.9257765 7.9257765 0 0 1 248.79688 229.12109 A 7.9257765 7.9257765 0 0 1 248.98438 228.72656 A 7.9257765 7.9257765 0 0 1 251.48242 227.83984 A 7.9257765 7.9257765 0 0 1 254.28906 226.8457 A 7.9257765 7.9257765 0 0 1 257.0957 227.83984 A 7.9257765 7.9257765 0 0 1 259.59375 228.72656 A 7.9257765 7.9257765 0 0 1 260.0332 229.24023 A 7.9257765 7.9257765 0 0 1 260.17773 229.31055 L 313.4043 288.39648 A 7.9265691 7.9265691 0 0 1 307.51562 301.62695 L 279.79492 301.62695 L 279.79492 404.9082 C 303.13694 402.20017 325.45055 399.41312 341.58594 390.19922 L 341.58594 257.07617 L 341.58594 209.71094 A 7.9265691 7.9265691 0 0 1 357.4375 209.71094 L 357.4375 247.53906 C 363.75051 246.32449 372.12643 244.62699 381.54297 242.39258 C 390.15199 240.34979 399.01936 237.97328 406.03906 235.55664 C 409.48531 234.37022 412.52456 232.9262 414.7207 231.78906 C 407.03377 209.12396 398.36646 183.08166 383.51172 161.97656 C 367.57307 139.3315 345.41943 122.37294 307.9043 120.0625 z " />
</svg>
